<mxfile host="app.diagrams.net" modified="2021-11-20T08:43:41.031Z" agent="5.0 (Windows NT 10.0; Win64; x64) AppleWebKit/537.36 (KHTML, like Gecko) Chrome/96.0.4664.45 Safari/537.36" etag="aBcXxqhSJEI0Z0rb5qXQ" version="15.8.3" type="github">
  <diagram id="xXHT9BAOfVF639Li885u" name="Page-1">
    <mxGraphModel dx="2048" dy="644" grid="1" gridSize="10" guides="1" tooltips="1" connect="1" arrows="1" fold="1" page="1" pageScale="1" pageWidth="827" pageHeight="1169" math="0" shadow="0">
      <root>
        <mxCell id="0" />
        <mxCell id="1" parent="0" />
        <mxCell id="ceSDltJcA41Jh-MsHaV3-26" value="MATHANG" style="whiteSpace=wrap;html=1;align=center;" vertex="1" parent="1">
          <mxGeometry x="-70" y="820" width="100" height="40" as="geometry" />
        </mxCell>
        <mxCell id="ceSDltJcA41Jh-MsHaV3-27" value="HOADON" style="whiteSpace=wrap;html=1;align=center;" vertex="1" parent="1">
          <mxGeometry x="270" y="820" width="100" height="40" as="geometry" />
        </mxCell>
        <mxCell id="ceSDltJcA41Jh-MsHaV3-28" value="NHANVIEN" style="whiteSpace=wrap;html=1;align=center;" vertex="1" parent="1">
          <mxGeometry x="607" y="820" width="100" height="40" as="geometry" />
        </mxCell>
        <mxCell id="ceSDltJcA41Jh-MsHaV3-29" value="KHACHHANG" style="whiteSpace=wrap;html=1;align=center;" vertex="1" parent="1">
          <mxGeometry x="440" y="710" width="100" height="40" as="geometry" />
        </mxCell>
        <mxCell id="ceSDltJcA41Jh-MsHaV3-30" value="CTHOADON" style="whiteSpace=wrap;html=1;align=center;" vertex="1" parent="1">
          <mxGeometry x="100" y="900" width="100" height="40" as="geometry" />
        </mxCell>
        <mxCell id="ceSDltJcA41Jh-MsHaV3-31" value="Thuộc" style="shape=rhombus;perimeter=rhombusPerimeter;whiteSpace=wrap;html=1;align=center;" vertex="1" parent="1">
          <mxGeometry x="90" y="810" width="120" height="60" as="geometry" />
        </mxCell>
        <mxCell id="ceSDltJcA41Jh-MsHaV3-32" value="" style="endArrow=none;html=1;rounded=0;exitX=1;exitY=0.5;exitDx=0;exitDy=0;entryX=0;entryY=0.5;entryDx=0;entryDy=0;" edge="1" parent="1" source="ceSDltJcA41Jh-MsHaV3-26" target="ceSDltJcA41Jh-MsHaV3-31">
          <mxGeometry relative="1" as="geometry">
            <mxPoint x="340" y="930" as="sourcePoint" />
            <mxPoint x="500" y="930" as="targetPoint" />
          </mxGeometry>
        </mxCell>
        <mxCell id="ceSDltJcA41Jh-MsHaV3-33" value="" style="endArrow=none;html=1;rounded=0;exitX=1;exitY=0.5;exitDx=0;exitDy=0;entryX=0;entryY=0.5;entryDx=0;entryDy=0;" edge="1" parent="1" source="ceSDltJcA41Jh-MsHaV3-31" target="ceSDltJcA41Jh-MsHaV3-27">
          <mxGeometry relative="1" as="geometry">
            <mxPoint x="340" y="930" as="sourcePoint" />
            <mxPoint x="500" y="930" as="targetPoint" />
          </mxGeometry>
        </mxCell>
        <mxCell id="ceSDltJcA41Jh-MsHaV3-34" value="(0,n)" style="text;strokeColor=none;fillColor=none;spacingLeft=4;spacingRight=4;overflow=hidden;rotatable=0;points=[[0,0.5],[1,0.5]];portConstraint=eastwest;fontSize=12;" vertex="1" parent="1">
          <mxGeometry x="30" y="810" width="40" height="30" as="geometry" />
        </mxCell>
        <mxCell id="ceSDltJcA41Jh-MsHaV3-35" value="(1,n)" style="text;strokeColor=none;fillColor=none;spacingLeft=4;spacingRight=4;overflow=hidden;rotatable=0;points=[[0,0.5],[1,0.5]];portConstraint=eastwest;fontSize=12;" vertex="1" parent="1">
          <mxGeometry x="230" y="810" width="40" height="30" as="geometry" />
        </mxCell>
        <mxCell id="ceSDltJcA41Jh-MsHaV3-36" value="" style="endArrow=none;html=1;rounded=0;exitX=0.5;exitY=1;exitDx=0;exitDy=0;entryX=0.5;entryY=0;entryDx=0;entryDy=0;" edge="1" parent="1" source="ceSDltJcA41Jh-MsHaV3-31" target="ceSDltJcA41Jh-MsHaV3-30">
          <mxGeometry relative="1" as="geometry">
            <mxPoint x="340" y="930" as="sourcePoint" />
            <mxPoint x="500" y="930" as="targetPoint" />
          </mxGeometry>
        </mxCell>
        <mxCell id="ceSDltJcA41Jh-MsHaV3-38" value="SOLUONG" style="ellipse;whiteSpace=wrap;html=1;align=center;" vertex="1" parent="1">
          <mxGeometry x="220" y="990" width="100" height="40" as="geometry" />
        </mxCell>
        <mxCell id="ceSDltJcA41Jh-MsHaV3-39" value="MAHD" style="ellipse;whiteSpace=wrap;html=1;align=center;fontStyle=4;" vertex="1" parent="1">
          <mxGeometry x="-20" y="990" width="100" height="40" as="geometry" />
        </mxCell>
        <mxCell id="ceSDltJcA41Jh-MsHaV3-40" value="MAHANG" style="ellipse;whiteSpace=wrap;html=1;align=center;fontStyle=4;" vertex="1" parent="1">
          <mxGeometry x="100" y="990" width="100" height="40" as="geometry" />
        </mxCell>
        <mxCell id="ceSDltJcA41Jh-MsHaV3-41" value="" style="endArrow=none;html=1;rounded=0;exitX=0.5;exitY=0;exitDx=0;exitDy=0;entryX=0.5;entryY=1;entryDx=0;entryDy=0;" edge="1" parent="1" source="ceSDltJcA41Jh-MsHaV3-39" target="ceSDltJcA41Jh-MsHaV3-30">
          <mxGeometry relative="1" as="geometry">
            <mxPoint x="340" y="1050" as="sourcePoint" />
            <mxPoint x="500" y="1050" as="targetPoint" />
          </mxGeometry>
        </mxCell>
        <mxCell id="ceSDltJcA41Jh-MsHaV3-42" value="" style="endArrow=none;html=1;rounded=0;exitX=0.5;exitY=1;exitDx=0;exitDy=0;entryX=0.5;entryY=0;entryDx=0;entryDy=0;" edge="1" parent="1" source="ceSDltJcA41Jh-MsHaV3-30" target="ceSDltJcA41Jh-MsHaV3-40">
          <mxGeometry relative="1" as="geometry">
            <mxPoint x="340" y="1050" as="sourcePoint" />
            <mxPoint x="500" y="1050" as="targetPoint" />
          </mxGeometry>
        </mxCell>
        <mxCell id="ceSDltJcA41Jh-MsHaV3-43" value="" style="endArrow=none;html=1;rounded=0;exitX=0.5;exitY=1;exitDx=0;exitDy=0;entryX=0.5;entryY=0;entryDx=0;entryDy=0;" edge="1" parent="1" source="ceSDltJcA41Jh-MsHaV3-30" target="ceSDltJcA41Jh-MsHaV3-38">
          <mxGeometry relative="1" as="geometry">
            <mxPoint x="340" y="1050" as="sourcePoint" />
            <mxPoint x="270" y="960" as="targetPoint" />
          </mxGeometry>
        </mxCell>
        <mxCell id="ceSDltJcA41Jh-MsHaV3-44" value="Bán" style="shape=rhombus;perimeter=rhombusPerimeter;whiteSpace=wrap;html=1;align=center;" vertex="1" parent="1">
          <mxGeometry x="430" y="810" width="120" height="60" as="geometry" />
        </mxCell>
        <mxCell id="ceSDltJcA41Jh-MsHaV3-45" value="" style="endArrow=none;html=1;rounded=0;exitX=1;exitY=0.5;exitDx=0;exitDy=0;entryX=0;entryY=0.5;entryDx=0;entryDy=0;" edge="1" parent="1" source="ceSDltJcA41Jh-MsHaV3-27" target="ceSDltJcA41Jh-MsHaV3-44">
          <mxGeometry relative="1" as="geometry">
            <mxPoint x="300" y="930" as="sourcePoint" />
            <mxPoint x="460" y="930" as="targetPoint" />
          </mxGeometry>
        </mxCell>
        <mxCell id="ceSDltJcA41Jh-MsHaV3-46" value="" style="endArrow=none;html=1;rounded=0;exitX=1;exitY=0.5;exitDx=0;exitDy=0;entryX=0;entryY=0.5;entryDx=0;entryDy=0;" edge="1" parent="1" source="ceSDltJcA41Jh-MsHaV3-44" target="ceSDltJcA41Jh-MsHaV3-28">
          <mxGeometry relative="1" as="geometry">
            <mxPoint x="300" y="930" as="sourcePoint" />
            <mxPoint x="460" y="930" as="targetPoint" />
          </mxGeometry>
        </mxCell>
        <mxCell id="ceSDltJcA41Jh-MsHaV3-47" value="" style="endArrow=none;html=1;rounded=0;exitX=0.5;exitY=1;exitDx=0;exitDy=0;entryX=0.5;entryY=0;entryDx=0;entryDy=0;" edge="1" parent="1" source="ceSDltJcA41Jh-MsHaV3-29" target="ceSDltJcA41Jh-MsHaV3-44">
          <mxGeometry relative="1" as="geometry">
            <mxPoint x="300" y="930" as="sourcePoint" />
            <mxPoint x="460" y="930" as="targetPoint" />
          </mxGeometry>
        </mxCell>
        <mxCell id="ceSDltJcA41Jh-MsHaV3-48" value="MAHANG" style="ellipse;whiteSpace=wrap;html=1;align=center;fontStyle=4;" vertex="1" parent="1">
          <mxGeometry x="-120" y="730" width="100" height="40" as="geometry" />
        </mxCell>
        <mxCell id="ceSDltJcA41Jh-MsHaV3-49" value="" style="endArrow=none;html=1;rounded=0;exitX=0.5;exitY=1;exitDx=0;exitDy=0;entryX=0.5;entryY=0;entryDx=0;entryDy=0;" edge="1" parent="1" source="ceSDltJcA41Jh-MsHaV3-48" target="ceSDltJcA41Jh-MsHaV3-26">
          <mxGeometry relative="1" as="geometry">
            <mxPoint x="300" y="930" as="sourcePoint" />
            <mxPoint x="460" y="930" as="targetPoint" />
          </mxGeometry>
        </mxCell>
        <mxCell id="ceSDltJcA41Jh-MsHaV3-50" value="(0,1)" style="text;strokeColor=none;fillColor=none;spacingLeft=4;spacingRight=4;overflow=hidden;rotatable=0;points=[[0,0.5],[1,0.5]];portConstraint=eastwest;fontSize=12;" vertex="1" parent="1">
          <mxGeometry x="370" y="810" width="40" height="30" as="geometry" />
        </mxCell>
        <mxCell id="ceSDltJcA41Jh-MsHaV3-51" value="(1,n)" style="text;strokeColor=none;fillColor=none;spacingLeft=4;spacingRight=4;overflow=hidden;rotatable=0;points=[[0,0.5],[1,0.5]];portConstraint=eastwest;fontSize=12;" vertex="1" parent="1">
          <mxGeometry x="567" y="810" width="40" height="30" as="geometry" />
        </mxCell>
        <mxCell id="ceSDltJcA41Jh-MsHaV3-52" value="(1,n)" style="text;strokeColor=none;fillColor=none;spacingLeft=4;spacingRight=4;overflow=hidden;rotatable=0;points=[[0,0.5],[1,0.5]];portConstraint=eastwest;fontSize=12;" vertex="1" parent="1">
          <mxGeometry x="490" y="750" width="40" height="30" as="geometry" />
        </mxCell>
        <mxCell id="ceSDltJcA41Jh-MsHaV3-53" value="" style="endArrow=none;html=1;rounded=0;exitX=0.5;exitY=0;exitDx=0;exitDy=0;entryX=0.5;entryY=0;entryDx=0;entryDy=0;" edge="1" parent="1" source="ceSDltJcA41Jh-MsHaV3-27" target="ceSDltJcA41Jh-MsHaV3-56">
          <mxGeometry relative="1" as="geometry">
            <mxPoint x="300" y="930" as="sourcePoint" />
            <mxPoint x="360" y="900" as="targetPoint" />
          </mxGeometry>
        </mxCell>
        <mxCell id="ceSDltJcA41Jh-MsHaV3-56" value="KHACHHANG" style="ellipse;whiteSpace=wrap;html=1;align=center;" vertex="1" parent="1">
          <mxGeometry x="210" y="740" width="100" height="40" as="geometry" />
        </mxCell>
        <mxCell id="ceSDltJcA41Jh-MsHaV3-57" value="NHANVIEN" style="ellipse;whiteSpace=wrap;html=1;align=center;" vertex="1" parent="1">
          <mxGeometry x="320" y="740" width="100" height="40" as="geometry" />
        </mxCell>
        <mxCell id="ceSDltJcA41Jh-MsHaV3-58" value="" style="endArrow=none;html=1;rounded=0;exitX=0.5;exitY=1;exitDx=0;exitDy=0;entryX=0.5;entryY=0;entryDx=0;entryDy=0;" edge="1" parent="1" source="ceSDltJcA41Jh-MsHaV3-57" target="ceSDltJcA41Jh-MsHaV3-27">
          <mxGeometry relative="1" as="geometry">
            <mxPoint x="330" y="829.9999999999998" as="sourcePoint" />
            <mxPoint x="270" y="749.9999999999998" as="targetPoint" />
          </mxGeometry>
        </mxCell>
      </root>
    </mxGraphModel>
  </diagram>
</mxfile>
